<svg width="35" height="34" viewBox="0 0 35 34" fill="none" xmlns="http://www.w3.org/2000/svg">
<rect x="3.5" y="12.4342" width="28" height="20.7237" fill="#EEEEEE"/>
<rect y="8.28947" width="35" height="8.28947" fill="white"/>
<rect x="14.7" y="8.28947" width="5.6" height="8.28947" fill="#888888"/>
<path fill-rule="evenodd" clip-rule="evenodd" d="M24.3402 1.76313C25.3139 2.72405 25.3139 4.28201 24.3402 5.24293C23.3811 6.18936 21.7167 6.7985 18.69 7.16613C18.9605 5.51049 19.2096 4.46482 19.4937 3.71579C19.8216 2.85137 20.1999 2.36915 20.814 1.76313C21.7877 0.802208 23.3664 0.802208 24.3402 1.76313ZM25.0519 5.94534C23.8118 7.16913 21.7746 7.81755 18.5322 8.18523C18.2704 8.21491 18.0009 8.24276 17.7232 8.26893C17.7244 8.27604 17.7256 8.28315 17.7268 8.29027C17.6978 8.28573 17.6688 8.28121 17.64 8.27671C17.5935 8.28101 17.5468 8.28526 17.4999 8.28947C17.5016 8.27815 17.5032 8.26685 17.5048 8.25556C17.2181 8.21069 16.9429 8.1674 16.6785 8.12529C13.0108 7.54108 11.4282 7.18305 10.1748 5.94614C8.80795 4.59729 8.80795 2.41037 10.1748 1.06152C11.5416 -0.28733 13.7577 -0.28733 15.1245 1.06152C16.4007 2.32089 16.7543 2.71197 17.55 7.25684C17.5684 7.36183 17.587 7.46904 17.6059 7.57852C17.6216 7.47637 17.6372 7.37611 17.6528 7.27767C18.2836 3.29789 18.8364 2.30987 20.1022 1.06072C21.469 -0.28813 23.6851 -0.288131 25.0519 1.06072C26.4188 2.40957 26.4188 4.59649 25.0519 5.94534ZM10.8866 1.76393C9.91282 2.72485 9.91282 4.28281 10.8866 5.24373C11.418 5.7682 12.0328 6.11179 13.082 6.41017C13.9295 6.6512 15.0097 6.84957 16.4986 7.08999C16.1603 5.19562 15.9138 4.14969 15.6493 3.461C15.3648 2.71996 15.0758 2.41824 14.4128 1.76393C13.439 0.803009 11.8603 0.803008 10.8866 1.76393Z" fill="#888888"/>
</svg>
