<svg width="154" height="147" viewBox="0 0 154 147" fill="none" xmlns="http://www.w3.org/2000/svg">
<path d="M141.404 123.5L142.683 124.284L141.404 123.5ZM141.404 55.5L142.683 54.7164L141.404 55.5ZM51.9041 143.5C51.0756 143.5 50.4041 144.172 50.4041 145C50.4041 145.828 51.0756 146.5 51.9041 146.5V143.5ZM142.683 124.284C149.739 112.766 153.308 101.16 153.308 89.5C153.308 77.8404 149.739 66.2337 142.683 54.7164L140.125 56.2836C146.942 67.4106 150.308 78.4818 150.308 89.5C150.308 100.518 146.942 111.589 140.125 122.716L142.683 124.284ZM142.683 54.7164C139.213 49.0526 135.638 45.9307 131.729 45.6915C127.821 45.4524 124.364 48.1452 121.269 51.9894C118.118 55.9037 114.999 61.4389 111.811 67.7828C108.618 74.1348 105.293 81.4276 101.77 88.8572L104.48 90.1428C108.032 82.6526 111.319 75.4422 114.491 69.13C117.668 62.8098 120.668 57.5199 123.606 53.8708C126.601 50.1516 129.205 48.5427 131.546 48.6859C133.887 48.8292 136.75 50.774 140.125 56.2836L142.683 54.7164ZM101.77 88.8572C95.4965 102.084 88.5599 115.816 80.3424 126.237C72.112 136.674 62.8279 143.5 51.9041 143.5V146.5C64.2028 146.5 74.2589 138.797 82.6981 128.094C91.1501 117.376 98.2126 103.358 104.48 90.1428L101.77 88.8572ZM101.77 90.1428C105.293 97.5724 108.618 104.865 111.811 111.217C114.999 117.561 118.118 123.096 121.269 127.011C124.364 130.855 127.821 133.548 131.729 133.308C135.638 133.069 139.213 129.947 142.683 124.284L140.125 122.716C136.75 128.226 133.887 130.171 131.546 130.314C129.205 130.457 126.601 128.848 123.606 125.129C120.668 121.48 117.668 116.19 114.491 109.87C111.319 103.558 108.032 96.3474 104.48 88.8572L101.77 90.1428Z" fill="white"/>
<path d="M12.4041 123.5L13.6832 122.716L12.4041 123.5ZM101.904 35.5C102.733 35.5 103.404 34.8284 103.404 34C103.404 33.1716 102.733 32.5 101.904 32.5V35.5ZM12.4041 55.5L11.1251 54.7164L12.4041 55.5ZM11.1251 54.7164C4.06944 66.2337 0.5 77.8404 0.5 89.5C0.5 101.16 4.06944 112.766 11.1251 124.284L13.6832 122.716C6.86666 111.589 3.5 100.518 3.5 89.5C3.5 78.4818 6.86666 67.4106 13.6832 56.2836L11.1251 54.7164ZM52.0387 88.8572C48.515 81.4276 45.1898 74.1348 41.9972 67.7828C38.8088 61.4389 35.6904 55.9038 32.5389 51.9894C29.4438 48.1452 25.9872 45.4524 22.079 45.6915C18.1706 45.9307 14.5948 49.0526 11.1251 54.7164L13.6832 56.2836C17.0585 50.774 19.9211 48.8292 22.2622 48.6859C24.6035 48.5427 27.2076 50.1516 30.2021 53.8708C33.1401 57.5199 36.1402 62.8098 39.3168 69.13C42.4893 75.4422 45.7757 82.6526 49.3281 90.1428L52.0387 88.8572ZM11.1251 124.284C14.5948 129.947 18.1706 133.069 22.079 133.308C25.9872 133.548 29.4438 130.855 32.5389 127.011C35.6904 123.096 38.8088 117.561 41.9972 111.217C45.1898 104.865 48.515 97.5724 52.0387 90.1428L49.3281 88.8572C45.7757 96.3474 42.4893 103.558 39.3168 109.87C36.1402 116.19 33.1401 121.48 30.2021 125.129C27.2076 128.848 24.6035 130.457 22.2622 130.314C19.9211 130.171 17.0585 128.226 13.6832 122.716L11.1251 124.284ZM52.0387 90.1428C58.3117 76.9162 65.2483 63.1843 73.4658 52.7631C81.6962 42.3258 90.9803 35.5 101.904 35.5V32.5C89.6053 32.5 79.5493 40.2034 71.1101 50.9056C62.6581 61.624 55.5956 75.6421 49.3281 88.8572L52.0387 90.1428Z" fill="white"/>
<circle cx="22.9041" cy="17" r="15.5" stroke="white" stroke-width="3"/>
<circle cx="130.904" cy="17" r="15.5" stroke="white" stroke-width="3"/>
</svg>
