<svg width="156" height="148" viewBox="0 0 156 148" fill="none" xmlns="http://www.w3.org/2000/svg">
<path d="M142.404 123.5L144.962 125.067L142.404 123.5ZM142.404 55.5L144.962 53.9329L142.404 55.5ZM52.9041 142C51.2473 142 49.9041 143.343 49.9041 145C49.9041 146.657 51.2473 148 52.9041 148V142ZM144.962 125.067C152.137 113.355 155.808 101.48 155.808 89.5C155.808 77.5197 152.137 65.6453 144.962 53.9329L139.846 57.0672C146.543 67.9991 149.808 78.8025 149.808 89.5C149.808 100.198 146.543 111.001 139.846 121.933L144.962 125.067ZM144.962 53.9329C141.445 48.1919 137.513 44.4815 132.821 44.1944C128.129 43.9072 124.246 47.142 121.101 51.0487C117.843 55.0957 114.665 60.7535 111.471 67.1092C108.268 73.4812 104.924 80.8152 101.414 88.2145L106.836 90.7856C110.402 83.2651 113.669 76.0959 116.832 69.8037C120.002 63.4952 122.943 58.3279 125.775 54.8115C128.719 51.1548 130.897 50.0878 132.454 50.1832C134.012 50.2785 136.518 51.6347 139.846 57.0672L144.962 53.9329ZM101.414 88.2145C95.1386 101.447 88.265 115.036 80.1646 125.308C72.0387 135.613 63.1405 142 52.9041 142V148C65.8904 148 76.3324 139.858 84.876 129.023C93.4453 118.156 100.571 103.995 106.836 90.7856L101.414 88.2145ZM101.414 90.7856C104.924 98.1849 108.268 105.519 111.471 111.891C114.665 118.247 117.843 123.904 121.101 127.951C124.246 131.858 128.129 135.093 132.821 134.806C137.513 134.519 141.445 130.808 144.962 125.067L139.846 121.933C136.518 127.365 134.012 128.722 132.454 128.817C130.897 128.912 128.719 127.845 125.775 124.189C122.943 120.672 120.002 115.505 116.832 109.196C113.669 102.904 110.402 95.7349 106.836 88.2145L101.414 90.7856Z" fill="white"/>
<path d="M13.4041 123.5L15.9623 121.933L15.9623 121.933L13.4041 123.5ZM102.904 37C104.561 37 105.904 35.6569 105.904 34C105.904 32.3431 104.561 31 102.904 31V37ZM13.4041 55.5L10.846 53.9329L13.4041 55.5ZM10.846 53.9329C3.67083 65.6453 0 77.5197 0 89.5C0 101.48 3.67083 113.355 10.846 125.067L15.9623 121.933C9.26527 111.001 6 100.198 6 89.5C6 78.8024 9.26527 67.999 15.9623 57.0671L10.846 53.9329ZM54.394 88.2144C50.8847 80.8152 47.5401 73.4812 44.3375 67.1092C41.1431 60.7535 37.9656 55.0957 34.7072 51.0487C31.5618 47.142 27.6791 43.9072 22.9874 44.1943C18.2953 44.4815 14.363 48.1919 10.846 53.9329L15.9623 57.0671C19.2903 51.6346 21.7963 50.2784 23.3538 50.1831C24.9116 50.0878 27.0896 51.1548 30.0337 54.8115C32.8649 58.3279 35.8059 63.4952 38.9765 69.8036C42.139 76.0958 45.406 83.2651 48.9728 90.7856L54.394 88.2144ZM10.846 125.067C14.363 130.808 18.2953 134.519 22.9874 134.806C27.6791 135.093 31.5618 131.858 34.7072 127.951C37.9656 123.904 41.1431 118.247 44.3375 111.891C47.5401 105.519 50.8847 98.1848 54.394 90.7856L48.9728 88.2144C45.406 95.7349 42.139 102.904 38.9765 109.196C35.8059 115.505 32.8649 120.672 30.0337 124.189C27.0896 127.845 24.9116 128.912 23.3538 128.817C21.7963 128.722 19.2903 127.365 15.9623 121.933L10.846 125.067ZM54.394 90.7856C60.6697 77.5532 67.5433 63.9644 75.6437 53.6919C83.7696 43.387 92.6677 37 102.904 37V31C89.9179 31 79.4759 39.1421 70.9323 49.9768C62.363 60.8439 55.2376 75.0051 48.9728 88.2144L54.394 90.7856Z" fill="white"/>
<circle cx="23.9041" cy="17" r="14" stroke="white" stroke-width="6"/>
<circle cx="131.904" cy="17" r="14" stroke="white" stroke-width="6"/>
</svg>
