<svg width="224" height="224" viewBox="0 0 224 224" fill="none" xmlns="http://www.w3.org/2000/svg">
<defs>
<linearGradient id="paint0_linear_802_588" x1="68.0962" y1="116.973" x2="147.682" y2="60.8573" gradientUnits="userSpaceOnUse">
<stop stop-color="#13183A"/>
<stop offset="0.546875" stop-color="#343D82"/>
</linearGradient>
<linearGradient id="paint1_linear_802_588" x1="153.232" y1="118.273" x2="72.6454" y2="60.4326" gradientUnits="userSpaceOnUse">
<stop stop-color="#13183A"/>
<stop offset="0.5625" stop-color="#343D82"/>
</linearGradient>
<linearGradient id="paint2_linear_802_588" x1="134.86" y1="69.061" x2="112.468" y2="81.006" gradientUnits="userSpaceOnUse">
<stop stop-color="#13183A"/>
<stop offset="1" stop-color="#343D82"/>
</linearGradient>
<linearGradient id="paint3_linear_802_588" x1="128.114" y1="81.4345" x2="120.862" y2="91.331" gradientUnits="userSpaceOnUse">
<stop stop-color="#13183A"/>
<stop offset="1" stop-color="#343D82"/>
</linearGradient>
<linearGradient id="paint4_linear_802_588" x1="84.9958" y1="70.8052" x2="108.122" y2="81.229" gradientUnits="userSpaceOnUse">
<stop stop-color="#13183A"/>
<stop offset="1" stop-color="#343D82"/>
</linearGradient>
<linearGradient id="paint5_linear_802_588" x1="91.1955" y1="82.2362" x2="98.8066" y2="91.8394" gradientUnits="userSpaceOnUse">
<stop stop-color="#13183A"/>
<stop offset="1" stop-color="#343D82"/>
</linearGradient>
</defs>
<circle opacity="0.06" cx="112" cy="112" r="112" fill="white"/>
<path opacity="0.8" fill-rule="evenodd" clip-rule="evenodd" d="M52.0108 97.6657L112.084 68.5941L171.844 101.501L171.627 146.584L108.367 176L52.0108 142.957L52.0109 97.6657L52.0108 97.6657Z" fill="#DB5151"/>
<path fill-rule="evenodd" clip-rule="evenodd" d="M46 80.081L112.292 48L178.238 84.3131L178.238 100.032L108.19 132.194L46 95.8732L46.1424 95.8046L46 95.8L46 80.081Z" fill="#DB5151"/>
<path fill-rule="evenodd" clip-rule="evenodd" d="M147.283 67.3849L133.758 60.13L68.2401 91.8703V109.101L82.065 117.146V99.7297L147.283 67.3849Z" fill="url(#paint0_linear_802_588)"/>
<path fill-rule="evenodd" clip-rule="evenodd" d="M72.7482 67.0826L87.1742 60.13L152.993 93.9863L152.993 111.519L138.266 118.34L138.266 99.7297L72.7482 67.0826Z" fill="url(#paint1_linear_802_588)"/>
<path d="M140.92 69.7938C142.455 87.372 110.316 85.8245 110.316 85.8245L109.715 71.9192C109.715 71.9192 139.385 52.2157 140.92 69.7938Z" fill="url(#paint2_linear_802_588)"/>
<path d="M123.143 82.1572C125.518 81.3487 130.213 78.2549 132.095 80.3C133.978 82.3451 130.239 83.934 122.958 85.1895C116.314 86.335 109.715 85.9451 109.715 85.9451C109.715 85.9451 115.126 84.886 123.143 82.1572Z" fill="url(#paint3_linear_802_588)"/>
<path d="M78.9972 71.9482C78.6343 89.5825 110.607 85.853 110.607 85.853L110.281 71.945C110.281 71.945 79.36 54.3139 78.9972 71.9482Z" fill="url(#paint4_linear_802_588)"/>
<path d="M96.1905 82.7646C93.7863 82.0498 88.9783 79.1441 87.174 81.2584C85.3698 83.3727 89.1657 84.8135 96.49 85.7839C103.173 86.6693 109.752 86.024 109.752 86.024C109.752 86.024 104.305 85.1769 96.1905 82.7646Z" fill="url(#paint5_linear_802_588)"/>
</svg>
