<svg width="40" height="40" viewBox="0 0 40 40" fill="none" xmlns="http://www.w3.org/2000/svg">
<circle opacity="0.08" cx="20" cy="20" r="20" fill="white"/>
<path fill-rule="evenodd" clip-rule="evenodd" d="M17 27.5C17 28.8807 18.1193 30 19.5 30C20.8807 30 22 28.8807 22 27.5V25.5355L23.3744 26.9099C24.3507 27.8862 25.9336 27.8862 26.9099 26.9099C27.8862 25.9336 27.8862 24.3507 26.9099 23.3744L25.5355 22H27.5C28.8807 22 30 20.8807 30 19.5C30 18.1193 28.8807 17 27.5 17H26.2132L26.9099 16.3033C27.8862 15.327 27.8862 13.7441 26.9099 12.7678C25.9336 11.7915 24.3507 11.7915 23.3744 12.7678L22 14.1421V12.5C22 11.1193 20.8807 10 19.5 10C18.1193 10 17 11.1193 17 12.5V13.4645L16.3033 12.7678C15.327 11.7915 13.7441 11.7915 12.7678 12.7678C11.7915 13.7441 11.7915 15.327 12.7678 16.3033L13.4645 17H12.5C11.1193 17 10 18.1193 10 19.5C10 20.8807 11.1193 22 12.5 22H14.1421L12.7678 23.3744C11.7915 24.3507 11.7915 25.9336 12.7678 26.9099C13.7441 27.8862 15.327 27.8862 16.3033 26.9099L17 26.2132V27.5ZM19.5 23C21.433 23 23 21.433 23 19.5C23 17.567 21.433 16 19.5 16C17.567 16 16 17.567 16 19.5C16 21.433 17.567 23 19.5 23Z" fill="#DB5151"/>
</svg>
