<svg width="40" height="40" viewBox="0 0 40 40" fill="none" xmlns="http://www.w3.org/2000/svg">
<circle opacity="0.1" cx="20" cy="20" r="20" fill="white"/>
<path fill-rule="evenodd" clip-rule="evenodd" d="M17 26.2132V30H22V25.5355L25.1421 28.6777L28.6777 25.1421L25.5355 22H30V17H26.2132L28.6777 14.5355L25.1421 11L22 14.1421V10H17V13.4645L14.5355 11L11 14.5355L13.4645 17H10V22H14.1421L11 25.1421L14.5355 28.6777L17 26.2132ZM19.5 23C21.433 23 23 21.433 23 19.5C23 17.567 21.433 16 19.5 16C17.567 16 16 17.567 16 19.5C16 21.433 17.567 23 19.5 23Z" fill="white"/>
</svg>
